Metropolis-Bold Italic.ufo
<glyph name="numbersign" format="1">
  <advance width="705"/>
  <unicode hex="0023"/>
  <outline>
    <contour>
      <point x="29" y="0" type="line"/>
      <point x="167" y="0" type="line"/>
      <point x="483" y="687" type="line"/>
      <point x="345" y="687" type="line"/>
    </contour>
    <contour>
      <point x="256" y="0" type="line"/>
      <point x="394" y="0" type="line"/>
      <point x="710" y="687" type="line"/>
      <point x="572" y="687" type="line"/>
    </contour>
    <contour>
      <point x="16" y="147" type="line"/>
      <point x="545" y="147" type="line"/>
      <point x="606" y="281" type="line"/>
      <point x="77" y="281" type="line"/>
    </contour>
    <contour>
      <point x="130" y="404" type="line"/>
      <point x="663" y="404" type="line"/>
      <point x="724" y="538" type="line"/>
      <point x="191" y="538" type="line"/>
    </contour>
  </outline>
</glyph>
<glyph name="ampersand" format="1">
  <advance width="739"/>
  <unicode hex="0026"/>
  <outline>
    <contour>
      <point x="247" y="-12" type="curve" smooth="yes"/>
      <point x="416" y="-12"/>
      <point x="553" y="101"/>
      <point x="701" y="300" type="curve"/>
      <point x="577" y="379" type="line"/>
      <point x="500" y="256"/>
      <point x="371" y="129"/>
      <point x="279" y="129" type="curve" smooth="yes"/>
      <point x="248" y="129"/>
      <point x="225" y="145"/>
      <point x="225" y="175" type="curve" smooth="yes"/>
      <point x="225" y="240"/>
      <point x="290" y="277"/>
      <point x="367" y="304" type="curve" smooth="yes"/>
      <point x="526" y="373"/>
      <point x="627" y="416"/>
      <point x="627" y="537" type="curve" smooth="yes"/>
      <point x="627" y="631"/>
      <point x="553" y="696"/>
      <point x="437" y="696" type="curve" smooth="yes"/>
      <point x="315" y="696"/>
      <point x="200" y="604"/>
      <point x="200" y="476" type="curve" smooth="yes"/>
      <point x="200" y="432"/>
      <point x="221" y="399"/>
      <point x="258" y="334" type="curve" smooth="yes"/>
      <point x="297" y="265"/>
      <point x="376" y="150"/>
      <point x="492" y="-17" type="curve"/>
      <point x="649" y="40" type="line"/>
      <point x="513" y="224"/>
      <point x="436" y="325"/>
      <point x="395" y="391" type="curve" smooth="yes"/>
      <point x="368" y="435"/>
      <point x="357" y="457"/>
      <point x="357" y="483" type="curve" smooth="yes"/>
      <point x="357" y="525"/>
      <point x="400" y="567"/>
      <point x="439" y="567" type="curve" smooth="yes"/>
      <point x="459" y="567"/>
      <point x="471" y="556"/>
      <point x="471" y="538" type="curve" smooth="yes"/>
      <point x="471" y="467"/>
      <point x="393" y="447"/>
      <point x="291" y="416" type="curve" smooth="yes"/>
      <point x="136" y="361"/>
      <point x="34" y="305"/>
      <point x="34" y="158" type="curve" smooth="yes"/>
      <point x="34" y="51"/>
      <point x="119" y="-12"/>
    </contour>
  </outline>
</glyph>
<glyph name="parenright" format="1">
  <advance width="397"/>
  <unicode hex="0029"/>
  <outline>
    <contour>
      <point x="44" y="-174" type="line"/>
      <point x="239" y="-59"/>
      <point x="370" y="144"/>
      <point x="370" y="364" type="curve" smooth="yes"/>
      <point x="370" y="503"/>
      <point x="312" y="620"/>
      <point x="212" y="696" type="curve"/>
      <point x="103" y="603" type="line"/>
      <point x="161" y="529"/>
      <point x="187" y="459"/>
      <point x="187" y="379" type="curve" smooth="yes"/>
      <point x="187" y="205"/>
      <point x="102" y="60"/>
      <point x="-42" y="-62" type="curve"/>
    </contour>
  </outline>
</glyph>
<glyph name="comma" format="1">
  <advance width="335"/>
  <unicode hex="002C"/>
  <outline>
    <contour>
      <point x="74" y="-160" type="line"/>
      <point x="164" y="-95"/>
      <point x="241" y="-6"/>
      <point x="241" y="98" type="curve" smooth="yes"/>
      <point x="241" y="170"/>
      <point x="203" y="219"/>
      <point x="141" y="219" type="curve" smooth="yes"/>
      <point x="78" y="219"/>
      <point x="16" y="159"/>
      <point x="16" y="90" type="curve" smooth="yes"/>
      <point x="16" y="33"/>
      <point x="56" y="-5"/>
      <point x="107" y="-5" type="curve"/>
      <point x="85" y="-38"/>
      <point x="51" y="-75"/>
      <point x="11" y="-102" type="curve"/>
    </contour>
  </outline>
</glyph>
<glyph name="two" format="1">
  <advance width="644"/>
  <unicode hex="0032"/>
  <outline>
    <contour>
      <point x="-5" y="0" type="line"/>
      <point x="544" y="0" type="line"/>
      <point x="580" y="173" type="line"/>
      <point x="329" y="173" type="line"/>
      <point x="434" y="226" type="line" smooth="yes"/>
      <point x="556" y="296"/>
      <point x="638" y="374"/>
      <point x="638" y="502" type="curve" smooth="yes"/>
      <point x="638" y="617"/>
      <point x="547" y="699"/>
      <point x="398" y="699" type="curve" smooth="yes"/>
      <point x="291" y="699"/>
      <point x="191" y="659"/>
      <point x="97" y="569" type="curve"/>
      <point x="200" y="437" type="line"/>
      <point x="262" y="490"/>
      <point x="316" y="523"/>
      <point x="382" y="523" type="curve" smooth="yes"/>
      <point x="416" y="523"/>
      <point x="438" y="510"/>
      <point x="438" y="485" type="curve" smooth="yes"/>
      <point x="438" y="432"/>
      <point x="379" y="385"/>
      <point x="316" y="345" type="curve" smooth="yes"/>
      <point x="25" y="157" type="line"/>
    </contour>
  </outline>
</glyph>
<glyph name="six" format="1">
  <advance width="668"/>
  <unicode hex="0036"/>
  <outline>
    <contour>
      <point x="311" y="-12" type="curve" smooth="yes"/>
      <point x="484" y="-12"/>
      <point x="630" y="107"/>
      <point x="630" y="271" type="curve" smooth="yes"/>
      <point x="630" y="384"/>
      <point x="545" y="454"/>
      <point x="427" y="454" type="curve" smooth="yes"/>
      <point x="357" y="454"/>
      <point x="274" y="426"/>
      <point x="228" y="377" type="curve"/>
      <point x="211" y="173" type="line"/>
      <point x="228" y="242"/>
      <point x="291" y="299"/>
      <point x="358" y="299" type="curve" smooth="yes"/>
      <point x="397" y="299"/>
      <point x="429" y="284"/>
      <point x="429" y="252" type="curve" smooth="yes"/>
      <point x="429" y="199"/>
      <point x="371" y="152"/>
      <point x="308" y="152" type="curve" smooth="yes"/>
      <point x="258" y="152"/>
      <point x="239" y="169"/>
      <point x="239" y="214" type="curve" smooth="yes"/>
      <point x="239" y="362"/>
      <point x="315" y="530"/>
      <point x="454" y="530" type="curve" smooth="yes"/>
      <point x="500" y="530"/>
      <point x="534" y="518"/>
      <point x="569" y="488" type="curve"/>
      <point x="678" y="626" type="line"/>
      <point x="624" y="669"/>
      <point x="556" y="699"/>
      <point x="462" y="699" type="curve" smooth="yes"/>
      <point x="216" y="699"/>
      <point x="48" y="491"/>
      <point x="48" y="240" type="curve" smooth="yes"/>
      <point x="48" y="88"/>
      <point x="133" y="-12"/>
    </contour>
  </outline>
</glyph>
<glyph name="greater" format="1">
  <advance width="601"/>
  <unicode hex="003E"/>
  <outline>
    <contour>
      <point x="34" y="78" type="line"/>
      <point x="548" y="267" type="line"/>
      <point x="578" y="420" type="line"/>
      <point x="142" y="609" type="line"/>
      <point x="113" y="459" type="line"/>
      <point x="419" y="343" type="line"/>
      <point x="64" y="229" type="line"/>
    </contour>
  </outline>
</glyph>
<glyph name="question" format="1">
  <advance width="557"/>
  <unicode hex="003F"/>
  <outline>
    <contour>
      <point x="185" y="264" type="line"/>
      <point x="361" y="264" type="line"/>
      <point x="368" y="298" type="line"/>
      <point x="476" y="323"/>
      <point x="565" y="412"/>
      <point x="565" y="525" type="curve" smooth="yes"/>
      <point x="565" y="628"/>
      <point x="485" y="699"/>
      <point x="358" y="699" type="curve" smooth="yes"/>
      <point x="268" y="699"/>
      <point x="178" y="663"/>
      <point x="105" y="601" type="curve"/>
      <point x="197" y="482" type="line"/>
      <point x="225" y="505"/>
      <point x="271" y="526"/>
      <point x="309" y="526" type="curve" smooth="yes"/>
      <point x="344" y="526"/>
      <point x="367" y="515"/>
      <point x="367" y="488" type="curve" smooth="yes"/>
      <point x="367" y="448"/>
      <point x="284" y="414"/>
      <point x="215" y="414" type="curve"/>
    </contour>
    <component base="period" xOffset="107"/>
  </outline>
</glyph>
<glyph name="B" format="1">
  <advance width="720"/>
  <unicode hex="0042"/>
  <outline>
    <contour>
      <point x="19" y="0" type="line"/>
      <point x="410" y="0" type="line" smooth="yes"/>
      <point x="554" y="0"/>
      <point x="683" y="76"/>
      <point x="683" y="209" type="curve" smooth="yes"/>
      <point x="683" y="274"/>
      <point x="647" y="328"/>
      <point x="590" y="354" type="curve"/>
      <point x="667" y="388"/>
      <point x="719" y="455"/>
      <point x="719" y="534" type="curve" smooth="yes"/>
      <point x="719" y="623"/>
      <point x="642" y="687"/>
      <point x="526" y="687" type="curve" smooth="yes"/>
      <point x="162" y="687" type="line"/>
    </contour>
    <contour>
      <point x="246" y="163" type="line"/>
      <point x="269" y="273" type="line"/>
      <point x="434" y="273" type="line" smooth="yes"/>
      <point x="476" y="273"/>
      <point x="493" y="263"/>
      <point x="493" y="239" type="curve" smooth="yes"/>
      <point x="493" y="194"/>
      <point x="454" y="163"/>
      <point x="399" y="163" type="curve" smooth="yes"/>
    </contour>
    <contour>
      <point x="300" y="420" type="line"/>
      <point x="321" y="524" type="line"/>
      <point x="458" y="524" type="line" smooth="yes"/>
      <point x="497" y="524"/>
      <point x="513" y="515"/>
      <point x="514" y="493" type="curve" smooth="yes"/>
      <point x="514" y="450"/>
      <point x="477" y="420"/>
      <point x="424" y="420" type="curve" smooth="yes"/>
    </contour>
  </outline>
</glyph>
<glyph name="C" format="1">
  <advance width="636"/>
  <unicode hex="0043"/>
  <outline>
    <contour>
      <point x="332" y="-12" type="curve" smooth="yes"/>
      <point x="433" y="-12"/>
      <point x="554" y="36"/>
      <point x="630" y="104" type="curve"/>
      <point x="507" y="240" type="line"/>
      <point x="465" y="195"/>
      <point x="398" y="164"/>
      <point x="347" y="164" type="curve" smooth="yes"/>
      <point x="281" y="164"/>
      <point x="216" y="215"/>
      <point x="216" y="302" type="curve" smooth="yes"/>
      <point x="216" y="414"/>
      <point x="325" y="523"/>
      <point x="440" y="523" type="curve" smooth="yes"/>
      <point x="497" y="523"/>
      <point x="539" y="496"/>
      <point x="561" y="459" type="curve"/>
      <point x="721" y="573" type="line"/>
      <point x="666" y="645"/>
      <point x="567" y="699"/>
      <point x="449" y="699" type="curve" smooth="yes"/>
      <point x="226" y="699"/>
      <point x="19" y="508"/>
      <point x="19" y="298" type="curve" smooth="yes"/>
      <point x="19" y="123"/>
      <point x="162" y="-12"/>
    </contour>
    <contour>
      <point x="320" y="0" type="move" name="bottom"/>
    </contour>
    <contour>
      <point x="460" y="687" type="move" name="top"/>
    </contour>
  </outline>
</glyph>
<glyph name="D" format="1">
  <advance width="739"/>
  <unicode hex="0044"/>
  <outline>
    <contour>
      <point x="19" y="0" type="line"/>
      <point x="282" y="0" type="line" smooth="yes"/>
      <point x="543" y="0"/>
      <point x="762" y="183"/>
      <point x="762" y="400" type="curve" smooth="yes"/>
      <point x="762" y="568"/>
      <point x="617" y="687"/>
      <point x="412" y="687" type="curve" smooth="yes"/>
      <point x="162" y="687" type="line"/>
    </contour>
    <contour>
      <point x="250" y="176" type="line"/>
      <point x="320" y="511" type="line"/>
      <point x="420" y="511" type="line" smooth="yes"/>
      <point x="504" y="511"/>
      <point x="564" y="462"/>
      <point x="564" y="393" type="curve" smooth="yes"/>
      <point x="564" y="275"/>
      <point x="461" y="176"/>
      <point x="338" y="176" type="curve" smooth="yes"/>
    </contour>
    <contour>
      <point x="412" y="687" type="move" name="top"/>
    </contour>
  </outline>
</glyph>
<glyph name="E" format="1">
  <advance width="682"/>
  <unicode hex="0045"/>
  <outline>
    <contour>
      <point x="19" y="0" type="line"/>
      <point x="572" y="0" type="line"/>
      <point x="608" y="173" type="line"/>
      <point x="157" y="173" type="line"/>
      <point x="227" y="54" type="line"/>
      <point x="281" y="333" type="line"/>
      <point x="172" y="264" type="line"/>
      <point x="595" y="264" type="line"/>
      <point x="631" y="437" type="line"/>
      <point x="211" y="437" type="line"/>
      <point x="292" y="367" type="line"/>
      <point x="343" y="633" type="line"/>
      <point x="223" y="514" type="line"/>
      <point x="679" y="514" type="line"/>
      <point x="715" y="687" type="line"/>
      <point x="162" y="687" type="line"/>
    </contour>
    <contour>
      <point x="162" y="687" type="move" name="ae_upper"/>
    </contour>
    <contour>
      <point x="572" y="0" type="move" name="bottom"/>
    </contour>
    <contour>
      <point x="435" y="687" type="move" name="top"/>
    </contour>
  </outline>
</glyph>
<glyph name="I" format="1">
  <advance width="340"/>
  <unicode hex="0049"/>
  <outline>
    <contour>
      <point x="19" y="0" type="line"/>
      <point x="213" y="0" type="line"/>
      <point x="356" y="687" type="line"/>
      <point x="162" y="687" type="line"/>
    </contour>
    <contour>
      <point x="213" y="0" type="move" name="bottom"/>
    </contour>
    <contour>
      <point x="259" y="687" type="move" name="top"/>
    </contour>
  </outline>
</glyph>
<glyph name="N" format="1">
  <advance width="802"/>
  <unicode hex="004E"/>
  <outline>
    <contour>
      <point x="19" y="0" type="line"/>
      <point x="213" y="0" type="line"/>
      <point x="292" y="368" type="line"/>
      <point x="484" y="0" type="line"/>
      <point x="675" y="0" type="line"/>
      <point x="818" y="687" type="line"/>
      <point x="624" y="687" type="line"/>
      <point x="545" y="319" type="line"/>
      <point x="354" y="687" type="line"/>
      <point x="162" y="687" type="line"/>
    </contour>
    <contour>
      <point x="348" y="0" type="move" name="bottom"/>
    </contour>
    <contour>
      <point x="489" y="687" type="move" name="top"/>
    </contour>
  </outline>
</glyph>
<glyph name="S" format="1">
  <advance width="632"/>
  <unicode hex="0053"/>
  <outline>
    <contour>
      <point x="282" y="-12" type="curve" smooth="yes"/>
      <point x="464" y="-12"/>
      <point x="608" y="87"/>
      <point x="608" y="240" type="curve" smooth="yes"/>
      <point x="608" y="349"/>
      <point x="536" y="387"/>
      <point x="376" y="424" type="curve" smooth="yes"/>
      <point x="301" y="441"/>
      <point x="277" y="446"/>
      <point x="277" y="471" type="curve" smooth="yes"/>
      <point x="277" y="500"/>
      <point x="310" y="538"/>
      <point x="377" y="538" type="curve" smooth="yes"/>
      <point x="421" y="538"/>
      <point x="491" y="522"/>
      <point x="548" y="473" type="curve"/>
      <point x="664" y="601" type="line"/>
      <point x="595" y="666"/>
      <point x="499" y="699"/>
      <point x="395" y="699" type="curve" smooth="yes"/>
      <point x="205" y="699"/>
      <point x="79" y="589"/>
      <point x="79" y="448" type="curve" smooth="yes"/>
      <point x="79" y="320"/>
      <point x="182" y="293"/>
      <point x="313" y="260" type="curve" smooth="yes"/>
      <point x="392" y="240"/>
      <point x="411" y="238"/>
      <point x="411" y="216" type="curve" smooth="yes"/>
      <point x="411" y="186"/>
      <point x="374" y="149"/>
      <point x="296" y="149" type="curve" smooth="yes"/>
      <point x="233" y="149"/>
      <point x="158" y="173"/>
      <point x="100" y="228" type="curve"/>
      <point x="-26" y="109" type="line"/>
      <point x="45" y="34"/>
      <point x="158" y="-12"/>
    </contour>
    <contour>
      <point x="266" y="0" type="move" name="bottom"/>
    </contour>
    <contour>
      <point x="406" y="687" type="move" name="top"/>
    </contour>
  </outline>
</glyph>
<glyph name="U" format="1">
  <advance width="753"/>
  <unicode hex="0055"/>
  <outline>
    <contour>
      <point x="330" y="-12" type="curve" smooth="yes"/>
      <point x="516" y="-12"/>
      <point x="671" y="111"/>
      <point x="709" y="297" type="curve" smooth="yes"/>
      <point x="790" y="687" type="line"/>
      <point x="596" y="687" type="line"/>
      <point x="521" y="323" type="line" smooth="yes"/>
      <point x="502" y="235"/>
      <point x="426" y="164"/>
      <point x="342" y="164" type="curve" smooth="yes"/>
      <point x="270" y="164"/>
      <point x="233" y="219"/>
      <point x="251" y="307" type="curve" smooth="yes"/>
      <point x="330" y="687" type="line"/>
      <point x="136" y="687" type="line"/>
      <point x="58" y="313" type="line" smooth="yes"/>
      <point x="20" y="127"/>
      <point x="132" y="-12"/>
    </contour>
    <contour>
      <point x="339" y="0" type="move" name="bottom"/>
    </contour>
    <contour>
      <point x="448" y="687" type="move" name="top"/>
    </contour>
  </outline>
</glyph>
<glyph name="bracketleft" format="1">
  <advance width="402"/>
  <unicode hex="005B"/>
  <outline>
    <contour>
      <point x="-17" y="-160" type="line"/>
      <point x="278" y="-160" type="line"/>
      <point x="303" y="-39" type="line"/>
      <point x="155" y="-39" type="line"/>
      <point x="282" y="568" type="line"/>
      <point x="430" y="568" type="line"/>
      <point x="455" y="689" type="line"/>
      <point x="160" y="689" type="line"/>
    </contour>
  </outline>
</glyph>
<glyph name="asciicircum" format="1">
  <advance width="506"/>
  <unicode hex="005E"/>
  <outline>
    <contour>
      <point x="78" y="413" type="line"/>
      <point x="212" y="413" type="line"/>
      <point x="324" y="573" type="line"/>
      <point x="367" y="413" type="line"/>
      <point x="492" y="413" type="line"/>
      <point x="407" y="687" type="line"/>
      <point x="278" y="687" type="line"/>
    </contour>
  </outline>
</glyph>
<glyph name="underscore" format="1">
  <advance width="712"/>
  <unicode hex="005F"/>
  <outline>
    <contour>
      <point x="-29" y="-159" type="line"/>
      <point x="567" y="-159" type="line"/>
      <point x="588" y="-61" type="line"/>
      <point x="-8" y="-61" type="line"/>
    </contour>
  </outline>
</glyph>
<glyph name="grave" format="1">
  <advance width="313"/>
  <unicode hex="0060"/>
  <outline>
    <contour>
      <point x="239" y="574" type="line"/>
      <point x="360" y="574" type="line"/>
      <point x="282" y="738" type="line"/>
      <point x="115" y="710" type="line"/>
    </contour>
    <contour>
      <point x="284" y="517" type="move" name="_top"/>
    </contour>
    <contour>
      <point x="322" y="704" type="move" name="top"/>
    </contour>
  </outline>
</glyph>
<glyph name="c" format="1">
  <advance width="507"/>
  <unicode hex="0063"/>
  <outline>
    <contour>
      <point x="253" y="-12" type="curve" smooth="yes"/>
      <point x="343" y="-12"/>
      <point x="421" y="21"/>
      <point x="485" y="81" type="curve"/>
      <point x="372" y="195" type="line"/>
      <point x="348" y="171"/>
      <point x="303" y="148"/>
      <point x="264" y="148" type="curve" smooth="yes"/>
      <point x="218" y="148"/>
      <point x="186" y="181"/>
      <point x="186" y="225" type="curve" smooth="yes"/>
      <point x="186" y="293"/>
      <point x="259" y="369"/>
      <point x="334" y="369" type="curve" smooth="yes"/>
      <point x="360" y="369"/>
      <point x="393" y="358"/>
      <point x="408" y="335" type="curve"/>
      <point x="548" y="427" type="line"/>
      <point x="508" y="485"/>
      <point x="442" y="529"/>
      <point x="344" y="529" type="curve" smooth="yes"/>
      <point x="177" y="529"/>
      <point x="5" y="391"/>
      <point x="5" y="222" type="curve" smooth="yes"/>
      <point x="5" y="91"/>
      <point x="109" y="-12"/>
    </contour>
    <contour>
      <point x="236" y="0" type="move" name="bottom"/>
    </contour>
    <contour>
      <point x="329" y="517" type="move" name="top"/>
    </contour>
  </outline>
</glyph>
<glyph name="e" format="1">
  <advance width="529"/>
  <unicode hex="0065"/>
  <outline>
    <contour>
      <point x="251" y="-12" type="curve" smooth="yes"/>
      <point x="324" y="-12"/>
      <point x="416" y="16"/>
      <point x="472" y="63" type="curve"/>
      <point x="379" y="180" type="line"/>
      <point x="341" y="153"/>
      <point x="294" y="132"/>
      <point x="248" y="132" type="curve" smooth="yes"/>
      <point x="201" y="132"/>
      <point x="173" y="163"/>
      <point x="173" y="213" type="curve" smooth="yes"/>
      <point x="173" y="295"/>
      <point x="241" y="385"/>
      <point x="326" y="385" type="curve" smooth="yes"/>
      <point x="356" y="385"/>
      <point x="378" y="374"/>
      <point x="378" y="359" type="curve" smooth="yes"/>
      <point x="377" y="331"/>
      <point x="347" y="314"/>
      <point x="298" y="314" type="curve"/>
      <point x="80" y="314" type="line"/>
      <point x="59" y="213" type="line"/>
      <point x="277" y="213" type="line"/>
      <point x="438" y="207"/>
      <point x="533" y="272"/>
      <point x="533" y="388" type="curve" smooth="yes"/>
      <point x="533" y="471"/>
      <point x="449" y="529"/>
      <point x="331" y="529" type="curve" smooth="yes"/>
      <point x="151" y="529"/>
      <point x="11" y="387"/>
      <point x="11" y="210" type="curve" smooth="yes"/>
      <point x="11" y="78"/>
      <point x="103" y="-12"/>
    </contour>
    <contour>
      <point x="251" y="-12" type="move" name="bottom"/>
    </contour>
    <contour>
      <point x="333" y="517" type="move" name="top"/>
    </contour>
  </outline>
</glyph>
<glyph name="g" format="1">
  <advance width="650"/>
  <unicode hex="0067"/>
  <outline>
    <contour>
      <point x="452" y="517" type="line"/>
      <point x="360" y="73" type="line" smooth="yes"/>
      <point x="350" y="28"/>
      <point x="281" y="-12"/>
      <point x="196" y="-12" type="curve" smooth="yes"/>
      <point x="149" y="-12"/>
      <point x="92" y="0"/>
      <point x="67" y="25" type="curve"/>
      <point x="-14" y="-99" type="line"/>
      <point x="35" y="-139"/>
      <point x="119" y="-172"/>
      <point x="221" y="-172" type="curve" smooth="yes"/>
      <point x="385" y="-172"/>
      <point x="520" y="-88"/>
      <point x="548" y="47" type="curve" smooth="yes"/>
      <point x="646" y="517" type="line"/>
    </contour>
    <contour>
      <point x="279" y="198" type="curve" smooth="yes"/>
      <point x="241" y="198"/>
      <point x="213" y="216"/>
      <point x="213" y="256" type="curve" smooth="yes"/>
      <point x="213" y="316"/>
      <point x="276" y="369"/>
      <point x="342" y="369" type="curve" smooth="yes"/>
      <point x="383" y="369"/>
      <point x="408" y="349"/>
      <point x="408" y="312" type="curve" smooth="yes"/>
      <point x="408" y="252"/>
      <point x="344" y="198"/>
    </contour>
    <contour>
      <point x="393" y="123" type="curve"/>
      <point x="445" y="432" type="line"/>
      <point x="431" y="483"/>
      <point x="361" y="529"/>
      <point x="279" y="529" type="curve" smooth="yes"/>
      <point x="132" y="529"/>
      <point x="16" y="385"/>
      <point x="16" y="238" type="curve" smooth="yes"/>
      <point x="16" y="120"/>
      <point x="91" y="38"/>
      <point x="204" y="38" type="curve" smooth="yes"/>
      <point x="269" y="38"/>
      <point x="341" y="66"/>
    </contour>
    <contour>
      <point x="221" y="-172" type="move" name="bottom"/>
    </contour>
    <contour>
      <point x="378" y="517" type="move" name="top"/>
    </contour>
  </outline>
</glyph>
<glyph name="k" format="1">
  <advance width="604"/>
  <unicode hex="006B"/>
  <outline>
    <contour>
      <point x="0" y="0" type="line"/>
      <point x="193" y="0" type="line"/>
      <point x="218" y="120" type="line"/>
      <point x="272" y="171" type="line"/>
      <point x="329" y="0" type="line"/>
      <point x="540" y="0" type="line"/>
      <point x="419" y="294" type="line"/>
      <point x="648" y="517" type="line"/>
      <point x="428" y="517" type="line"/>
      <point x="264" y="343" type="line"/>
      <point x="338" y="699" type="line"/>
      <point x="145" y="699" type="line"/>
    </contour>
    <contour>
      <point x="261" y="0" type="move" name="bottom"/>
    </contour>
  </outline>
</glyph>
<glyph name="o" format="1">
  <advance width="644"/>
  <unicode hex="006F"/>
  <outline>
    <contour>
      <point x="278" y="-12" type="curve" smooth="yes"/>
      <point x="465" y="-12"/>
      <point x="618" y="127"/>
      <point x="618" y="296" type="curve" smooth="yes"/>
      <point x="618" y="434"/>
      <point x="515" y="529"/>
      <point x="366" y="529" type="curve" smooth="yes"/>
      <point x="179" y="529"/>
      <point x="26" y="391"/>
      <point x="26" y="222" type="curve" smooth="yes"/>
      <point x="26" y="83"/>
      <point x="129" y="-12"/>
    </contour>
    <contour>
      <point x="287" y="148" type="curve" smooth="yes"/>
      <point x="240" y="148"/>
      <point x="208" y="179"/>
      <point x="208" y="225" type="curve" smooth="yes"/>
      <point x="208" y="304"/>
      <point x="275" y="369"/>
      <point x="358" y="369" type="curve" smooth="yes"/>
      <point x="404" y="369"/>
      <point x="436" y="338"/>
      <point x="436" y="293" type="curve" smooth="yes"/>
      <point x="436" y="213"/>
      <point x="369" y="148"/>
    </contour>
    <contour>
      <point x="367" y="517" type="move" name="top"/>
    </contour>
  </outline>
</glyph>
<glyph name="t" format="1">
  <advance width="396"/>
  <unicode hex="0074"/>
  <outline>
    <contour>
      <point x="198" y="-12" type="curve" smooth="yes"/>
      <point x="248" y="-12"/>
      <point x="301" y="7"/>
      <point x="337" y="36" type="curve"/>
      <point x="322" y="169" type="line"/>
      <point x="312" y="160"/>
      <point x="287" y="148"/>
      <point x="265" y="148" type="curve" smooth="yes"/>
      <point x="249" y="148"/>
      <point x="240" y="155"/>
      <point x="240" y="175" type="curve" smooth="yes"/>
      <point x="240" y="193"/>
      <point x="247" y="219"/>
      <point x="339" y="659" type="curve"/>
      <point x="155" y="659" type="line"/>
      <point x="59" y="198"/>
      <point x="49" y="167"/>
      <point x="49" y="132" type="curve" smooth="yes"/>
      <point x="49" y="48"/>
      <point x="109" y="-12"/>
    </contour>
    <contour>
      <point x="28" y="365" type="line"/>
      <point x="379" y="365" type="line"/>
      <point x="411" y="517" type="line"/>
      <point x="60" y="517" type="line"/>
    </contour>
    <contour>
      <point x="221" y="0" type="move" name="bottom"/>
    </contour>
  </outline>
</glyph>
<glyph name="u" format="1">
  <advance width="633"/>
  <unicode hex="0075"/>
  <outline>
    <component base="n" xScale="-1" yScale="-1" xOffset="633" yOffset="517"/>
    <contour>
      <point x="521" y="0" type="move" name="bottom"/>
    </contour>
    <contour>
      <point x="356" y="517" type="move" name="top"/>
    </contour>
  </outline>
</glyph>
<glyph name="v" format="1">
  <advance width="645"/>
  <unicode hex="0076"/>
  <outline>
    <contour>
      <point x="182" y="0" type="line"/>
      <point x="360" y="0" type="line"/>
      <point x="690" y="517" type="line"/>
      <point x="488" y="517" type="line"/>
      <point x="311" y="221" type="line"/>
      <point x="257" y="517" type="line"/>
      <point x="63" y="517" type="line"/>
    </contour>
  </outline>
</glyph>
<glyph name="y" format="1">
  <advance width="518"/>
  <unicode hex="0079"/>
  <outline>
    <contour>
      <point x="68" y="-180" type="curve" smooth="yes"/>
      <point x="154" y="-180"/>
      <point x="238" y="-123"/>
      <point x="303" y="-11" type="curve" smooth="yes"/>
      <point x="608" y="517" type="line"/>
      <point x="410" y="517" type="line"/>
      <point x="242" y="198" type="line"/>
      <point x="204" y="517" type="line"/>
      <point x="11" y="517" type="line"/>
      <point x="109" y="-7" type="line"/>
      <point x="92" y="-20" type="line"/>
      <point x="87" y="-29"/>
      <point x="53" y="-43"/>
      <point x="32" y="-43" type="curve" smooth="yes"/>
      <point x="15" y="-43"/>
      <point x="-9" y="-34"/>
      <point x="-34" y="-18" type="curve"/>
      <point x="-88" y="-134" type="line"/>
      <point x="-49" y="-159"/>
      <point x="16" y="-180"/>
    </contour>
    <contour>
      <point x="310" y="517" type="move" name="top"/>
    </contour>
  </outline>
</glyph>
<glyph name="z" format="1">
  <advance width="552"/>
  <unicode hex="007A"/>
  <outline>
    <contour>
      <point x="-18" y="0" type="line"/>
      <point x="462" y="0" type="line"/>
      <point x="496" y="160" type="line"/>
      <point x="266" y="160" type="line"/>
      <point x="541" y="384" type="line"/>
      <point x="568" y="517" type="line"/>
      <point x="96" y="517" type="line"/>
      <point x="63" y="357" type="line"/>
      <point x="283" y="357" type="line"/>
      <point x="7" y="133" type="line"/>
    </contour>
    <contour>
      <point x="335" y="517" type="move" name="top"/>
    </contour>
  </outline>
</glyph>
<glyph name="braceleft" format="1">
  <advance width="432"/>
  <unicode hex="007B"/>
  <outline>
    <contour>
      <point x="297" y="-166" type="curve"/>
      <point x="324" y="-54" type="line"/>
      <point x="246" y="-44"/>
      <point x="221" y="-37"/>
      <point x="221" y="-1" type="curve" smooth="yes"/>
      <point x="221" y="34"/>
      <point x="253" y="131"/>
      <point x="253" y="175" type="curve" smooth="yes"/>
      <point x="253" y="218"/>
      <point x="231" y="249"/>
      <point x="195" y="261" type="curve"/>
      <point x="258" y="281"/>
      <point x="285" y="313"/>
      <point x="297" y="370" type="curve" smooth="yes"/>
      <point x="319" y="485" type="line" smooth="yes"/>
      <point x="333" y="548"/>
      <point x="364" y="571"/>
      <point x="468" y="583" type="curve"/>
      <point x="463" y="698" type="line"/>
      <point x="281" y="686"/>
      <point x="204" y="637"/>
      <point x="179" y="516" type="curve" smooth="yes"/>
      <point x="159" y="410" type="line" smooth="yes"/>
      <point x="147" y="353"/>
      <point x="108" y="321"/>
      <point x="40" y="321" type="curve"/>
      <point x="30" y="211" type="line"/>
      <point x="84" y="211"/>
      <point x="105" y="200"/>
      <point x="105" y="166" type="curve" smooth="yes"/>
      <point x="105" y="126"/>
      <point x="73" y="36"/>
      <point x="73" y="-15" type="curve" smooth="yes"/>
      <point x="73" y="-106"/>
      <point x="142" y="-156"/>
    </contour>
  </outline>
</glyph>
<glyph name="braceright" format="1">
  <advance width="432"/>
  <unicode hex="007D"/>
  <outline>
    <contour>
      <point x="-29" y="-166" type="line"/>
      <point x="155" y="-154"/>
      <point x="231" y="-105"/>
      <point x="256" y="15" type="curve" smooth="yes"/>
      <point x="276" y="122" type="line" smooth="yes"/>
      <point x="288" y="179"/>
      <point x="329" y="211"/>
      <point x="395" y="211" type="curve"/>
      <point x="405" y="321" type="line"/>
      <point x="350" y="321"/>
      <point x="329" y="331"/>
      <point x="329" y="365" type="curve" smooth="yes"/>
      <point x="329" y="395"/>
      <point x="362" y="502"/>
      <point x="362" y="546" type="curve" smooth="yes"/>
      <point x="362" y="637"/>
      <point x="292" y="687"/>
      <point x="137" y="697" type="curve"/>
      <point x="111" y="585" type="line"/>
      <point x="190" y="575"/>
      <point x="214" y="568"/>
      <point x="214" y="533" type="curve" smooth="yes"/>
      <point x="214" y="501"/>
      <point x="182" y="395"/>
      <point x="182" y="357" type="curve" smooth="yes"/>
      <point x="182" y="314"/>
      <point x="204" y="283"/>
      <point x="240" y="271" type="curve"/>
      <point x="177" y="251"/>
      <point x="150" y="219"/>
      <point x="138" y="161" type="curve" smooth="yes"/>
      <point x="115" y="47" type="line" smooth="yes"/>
      <point x="102" y="-17"/>
      <point x="68" y="-40"/>
      <point x="-34" y="-52" type="curve"/>
    </contour>
  </outline>
</glyph>
<glyph name="cent" format="1">
  <advance width="622"/>
  <unicode hex="00A2"/>
  <outline>
    <contour>
      <point x="235" y="-74" type="line"/>
      <point x="345" y="-74" type="line"/>
      <point x="483" y="589" type="line"/>
      <point x="373" y="589" type="line"/>
    </contour>
    <component base="c" xOffset="51"/>
  </outline>
</glyph>
<glyph name="sterling" format="1">
  <advance width="723"/>
  <unicode hex="00A3"/>
  <outline>
    <contour>
      <point x="1" y="0" type="line"/>
      <point x="614" y="0" type="line"/>
      <point x="644" y="143" type="line"/>
      <point x="269" y="143" type="line"/>
      <point x="315" y="87" type="line"/>
      <point x="385" y="435" type="line" smooth="yes"/>
      <point x="395" y="482"/>
      <point x="443" y="523"/>
      <point x="497" y="523" type="curve" smooth="yes"/>
      <point x="525" y="523"/>
      <point x="556" y="505"/>
      <point x="568" y="470" type="curve"/>
      <point x="711" y="579" type="line"/>
      <point x="674" y="646"/>
      <point x="582" y="699"/>
      <point x="482" y="699" type="curve" smooth="yes"/>
      <point x="343" y="699"/>
      <point x="227" y="609"/>
      <point x="198" y="471" type="curve" smooth="yes"/>
      <point x="129" y="143" type="line"/>
      <point x="15" y="76" type="line"/>
    </contour>
    <contour>
      <point x="78" y="250" type="line"/>
      <point x="483" y="250" type="line"/>
      <point x="502" y="337" type="line"/>
      <point x="97" y="337" type="line"/>
    </contour>
  </outline>
</glyph>
<glyph name="yen" format="1">
  <advance width="833"/>
  <unicode hex="00A5"/>
  <outline>
    <contour>
      <point x="238" y="90" type="line"/>
      <point x="734" y="90" type="line"/>
      <point x="752" y="177" type="line"/>
      <point x="256" y="177" type="line"/>
    </contour>
    <contour>
      <point x="267" y="230" type="line"/>
      <point x="763" y="230" type="line"/>
      <point x="781" y="317" type="line"/>
      <point x="285" y="317" type="line"/>
    </contour>
    <component base="Y" xOffset="146"/>
  </outline>
</glyph>
<glyph name="dieresis" format="1">
  <advance width="482"/>
  <unicode hex="00A8"/>
  <outline>
    <contour>
      <point x="208" y="575" type="curve" smooth="yes"/>
      <point x="254" y="575"/>
      <point x="298" y="614"/>
      <point x="298" y="666" type="curve" smooth="yes"/>
      <point x="298" y="711"/>
      <point x="265" y="748"/>
      <point x="219" y="748" type="curve" smooth="yes"/>
      <point x="171" y="748"/>
      <point x="127" y="710"/>
      <point x="127" y="656" type="curve" smooth="yes"/>
      <point x="127" y="611"/>
      <point x="158" y="575"/>
    </contour>
    <contour>
      <point x="433" y="575" type="curve" smooth="yes"/>
      <point x="479" y="575"/>
      <point x="523" y="614"/>
      <point x="523" y="667" type="curve" smooth="yes"/>
      <point x="523" y="711"/>
      <point x="491" y="748"/>
      <point x="444" y="748" type="curve" smooth="yes"/>
      <point x="397" y="748"/>
      <point x="352" y="710"/>
      <point x="352" y="657" type="curve" smooth="yes"/>
      <point x="352" y="611"/>
      <point x="384" y="575"/>
    </contour>
    <contour>
      <point x="295" y="517" type="move" name="_top"/>
    </contour>
    <contour>
      <point x="334" y="704" type="move" name="top"/>
    </contour>
  </outline>
</glyph>
<glyph name="macron" format="1">
  <advance width="487"/>
  <unicode hex="00AF"/>
  <outline>
    <contour>
      <point x="124" y="573" type="line"/>
      <point x="493" y="573" type="line"/>
      <point x="515" y="679" type="line"/>
      <point x="146" y="679" type="line"/>
    </contour>
    <contour>
      <point x="297" y="517" type="move" name="_top"/>
    </contour>
    <contour>
      <point x="336" y="704" type="move" name="top"/>
    </contour>
  </outline>
</glyph>
<glyph name="periodcentered" format="1">
  <advance width="330"/>
  <unicode hex="00B7"/>
  <outline>
    <contour>
      <point x="161" y="177" type="curve" smooth="yes"/>
      <point x="221" y="177"/>
      <point x="271" y="229"/>
      <point x="271" y="288" type="curve" smooth="yes"/>
      <point x="271" y="340"/>
      <point x="232" y="381"/>
      <point x="178" y="381" type="curve" smooth="yes"/>
      <point x="118" y="381"/>
      <point x="68" y="330"/>
      <point x="68" y="269" type="curve" smooth="yes"/>
      <point x="68" y="217"/>
      <point x="106" y="177"/>
    </contour>
  </outline>
</glyph>
<glyph name="cedilla" format="1">
  <advance width="271"/>
  <unicode hex="00B8"/>
  <outline>
    <contour>
      <point x="39" y="-200" type="curve" smooth="yes"/>
      <point x="107" y="-200"/>
      <point x="159" y="-169"/>
      <point x="159" y="-109" type="curve" smooth="yes"/>
      <point x="159" y="-70"/>
      <point x="129" y="-42"/>
      <point x="84" y="-42" type="curve" smooth="yes"/>
      <point x="70" y="-42"/>
      <point x="30" y="-46"/>
      <point x="6" y="-58" type="curve"/>
      <point x="92" y="-62" type="line"/>
      <point x="138" y="11" type="line"/>
      <point x="45" y="11" type="line"/>
      <point x="1" y="-62" type="line"/>
      <point x="27" y="-91" type="line"/>
      <point x="38" y="-83"/>
      <point x="52" y="-78"/>
      <point x="63" y="-78" type="curve" smooth="yes"/>
      <point x="72" y="-78"/>
      <point x="77" y="-84"/>
      <point x="77" y="-93" type="curve" smooth="yes"/>
      <point x="77" y="-112"/>
      <point x="53" y="-125"/>
      <point x="20" y="-125" type="curve" smooth="yes"/>
      <point x="6" y="-125"/>
      <point x="-12" y="-121"/>
      <point x="-27" y="-107" type="curve"/>
      <point x="-62" y="-166" type="line"/>
      <point x="-40" y="-183"/>
      <point x="-5" y="-200"/>
    </contour>
    <contour>
      <point x="82" y="0" type="move" name="_bottom"/>
    </contour>
  </outline>
</glyph>
<glyph name="Eth" format="1">
  <advance width="818"/>
  <unicode hex="00D0"/>
  <outline>
    <contour>
      <point x="33" y="258" type="line"/>
      <point x="431" y="258" type="line"/>
      <point x="468" y="431" type="line"/>
      <point x="69" y="431" type="line"/>
    </contour>
    <component base="D" xOffset="51"/>
  </outline>
</glyph>
<glyph name="eth" format="1">
  <advance width="622"/>
  <unicode hex="00F0"/>
  <outline>
    <contour>
      <point x="275" y="149" type="curve" smooth="yes"/>
      <point x="229" y="149"/>
      <point x="201" y="172"/>
      <point x="201" y="211" type="curve" smooth="yes"/>
      <point x="201" y="275"/>
      <point x="265" y="338"/>
      <point x="338" y="338" type="curve" smooth="yes"/>
      <point x="385" y="338"/>
      <point x="412" y="313"/>
      <point x="412" y="277" type="curve" smooth="yes"/>
      <point x="412" y="211"/>
      <point x="349" y="149"/>
    </contour>
    <contour>
      <point x="316" y="588"/>
      <point x="402" y="520"/>
      <point x="421" y="427" type="curve"/>
      <point x="390" y="461"/>
      <point x="351" y="492"/>
      <point x="281" y="492" type="curve" smooth="yes"/>
      <point x="132" y="492"/>
      <point x="20" y="355"/>
      <point x="20" y="205" type="curve" smooth="yes"/>
      <point x="20" y="76"/>
      <point x="116" y="-12"/>
      <point x="265" y="-12" type="curve" smooth="yes"/>
      <point x="461" y="-12"/>
      <point x="606" y="156"/>
      <point x="606" y="358" type="curve" smooth="yes"/>
      <point x="606" y="492"/>
      <point x="528" y="594"/>
      <point x="384" y="727" type="curve"/>
      <point x="212" y="664" type="line"/>
    </contour>
    <contour>
      <point x="240" y="511" type="line"/>
      <point x="547" y="638" type="line"/>
      <point x="524" y="726" type="line"/>
      <point x="217" y="599" type="line"/>
    </contour>
  </outline>
</glyph>
<glyph name="divide" format="1">
  <advance width="605"/>
  <unicode hex="00F7"/>
  <outline>
    <contour>
      <point x="53" y="260" type="line"/>
      <point x="552" y="260" type="line"/>
      <point x="583" y="409" type="line"/>
      <point x="84" y="409" type="line"/>
    </contour>
    <contour>
      <point x="269" y="30" type="curve" smooth="yes"/>
      <point x="323" y="30"/>
      <point x="373" y="79"/>
      <point x="373" y="137" type="curve" smooth="yes"/>
      <point x="373" y="186"/>
      <point x="336" y="226"/>
      <point x="285" y="226" type="curve" smooth="yes"/>
      <point x="230" y="226"/>
      <point x="179" y="184"/>
      <point x="179" y="121" type="curve" smooth="yes"/>
      <point x="179" y="70"/>
      <point x="215" y="30"/>
    </contour>
    <contour>
      <point x="355" y="442" type="curve" smooth="yes"/>
      <point x="409" y="442"/>
      <point x="458" y="490"/>
      <point x="458" y="548" type="curve" smooth="yes"/>
      <point x="458" y="597"/>
      <point x="423" y="638"/>
      <point x="371" y="638" type="curve" smooth="yes"/>
      <point x="317" y="638"/>
      <point x="264" y="596"/>
      <point x="264" y="534" type="curve" smooth="yes"/>
      <point x="264" y="482"/>
      <point x="301" y="442"/>
    </contour>
  </outline>
</glyph>
<glyph name="oslash" format="1">
  <advance width="635"/>
  <unicode hex="00F8"/>
  <outline>
    <contour>
      <point x="-20" y="0" type="line"/>
      <point x="105" y="0" type="line"/>
      <point x="662" y="517" type="line"/>
      <point x="538" y="517" type="line"/>
    </contour>
    <component base="o" xOffset="3"/>
  </outline>
</glyph>
<glyph name="dcroat" format="1">
  <advance width="678"/>
  <unicode hex="0111"/>
  <outline>
    <contour>
      <point x="354" y="565" type="line"/>
      <point x="744" y="565" type="line"/>
      <point x="763" y="655" type="line"/>
      <point x="373" y="655" type="line"/>
    </contour>
    <component base="d"/>
  </outline>
</glyph>
<glyph name="OE" format="1">
  <advance width="1053"/>
  <unicode hex="0152"/>
  <outline>
    <contour>
      <point x="48" y="291" type="curve" smooth="yes"/>
      <point x="48" y="124"/>
      <point x="182" y="0"/>
      <point x="361" y="0" type="curve" smooth="yes"/>
      <point x="948" y="0" type="line"/>
      <point x="984" y="173" type="line"/>
      <point x="626" y="173" type="line"/>
      <point x="644" y="264" type="line"/>
      <point x="971" y="264" type="line"/>
      <point x="1007" y="437" type="line"/>
      <point x="681" y="437" type="line"/>
      <point x="696" y="514" type="line"/>
      <point x="1055" y="514" type="line"/>
      <point x="1091" y="687" type="line"/>
      <point x="491" y="687" type="line" smooth="yes"/>
      <point x="265" y="687"/>
      <point x="48" y="510"/>
    </contour>
    <contour>
      <point x="246" y="297" type="curve" smooth="yes"/>
      <point x="246" y="406"/>
      <point x="357" y="511"/>
      <point x="467" y="511" type="curve" smooth="yes"/>
      <point x="501" y="511" type="line"/>
      <point x="432" y="176" type="line"/>
      <point x="385" y="176" type="line" smooth="yes"/>
      <point x="303" y="176"/>
      <point x="246" y="224"/>
    </contour>
  </outline>
</glyph>
<glyph name="circumflex" format="1">
  <advance width="412"/>
  <unicode hex="02C6"/>
  <outline>
    <contour>
      <point x="86" y="574" type="line"/>
      <point x="203" y="574" type="line"/>
      <point x="292" y="641" type="line"/>
      <point x="350" y="574" type="line"/>
      <point x="458" y="574" type="line"/>
      <point x="381" y="728" type="line"/>
      <point x="226" y="728" type="line"/>
    </contour>
    <contour>
      <point x="267" y="517" type="move" name="_top"/>
    </contour>
    <contour>
      <point x="305" y="704" type="move" name="top"/>
    </contour>
  </outline>
</glyph>
<glyph name="ogonek" format="1">
  <advance width="278"/>
  <unicode hex="02DB"/>
  <outline>
    <contour>
      <point x="75" y="-173" type="curve" smooth="yes"/>
      <point x="108" y="-173"/>
      <point x="140" y="-163"/>
      <point x="166" y="-143" type="curve"/>
      <point x="153" y="-50" type="line"/>
      <point x="143" y="-60"/>
      <point x="127" y="-66"/>
      <point x="109" y="-66" type="curve" smooth="yes"/>
      <point x="96" y="-66"/>
      <point x="89" y="-58"/>
      <point x="89" y="-45" type="curve" smooth="yes"/>
      <point x="89" y="-21"/>
      <point x="115" y="0"/>
      <point x="145" y="0" type="curve"/>
      <point x="41" y="42" type="line"/>
      <point x="-3" y="15"/>
      <point x="-26" y="-25"/>
      <point x="-26" y="-73" type="curve" smooth="yes"/>
      <point x="-26" y="-136"/>
      <point x="13" y="-173"/>
    </contour>
    <contour>
      <point x="145" y="0" type="move" name="_bottom"/>
    </contour>
  </outline>
</glyph>
<glyph name="dotaccentcomb" format="1">
  <advance width="277"/>
  <unicode hex="0307"/>
  <outline>
    <contour>
      <point x="218" y="573" type="curve" smooth="yes"/>
      <point x="273" y="573"/>
      <point x="323" y="623"/>
      <point x="323" y="680" type="curve" smooth="yes"/>
      <point x="323" y="730"/>
      <point x="286" y="771"/>
      <point x="234" y="771" type="curve" smooth="yes"/>
      <point x="179" y="771"/>
      <point x="126" y="724"/>
      <point x="126" y="664" type="curve" smooth="yes"/>
      <point x="126" y="614"/>
      <point x="164" y="573"/>
    </contour>
    <contour>
      <point x="193" y="517" type="move" name="_top"/>
    </contour>
  </outline>
</glyph>
<glyph name="commaaccentcomb" format="1">
  <advance width="237"/>
  <unicode hex="0326"/>
  <outline>
    <contour>
      <point x="-4" y="-306" type="line"/>
      <point x="62" y="-259"/>
      <point x="119" y="-193"/>
      <point x="119" y="-117" type="curve" smooth="yes"/>
      <point x="119" y="-62"/>
      <point x="89" y="-23"/>
      <point x="42" y="-23" type="curve" smooth="yes"/>
      <point x="-4" y="-23"/>
      <point x="-46" y="-65"/>
      <point x="-46" y="-115" type="curve" smooth="yes"/>
      <point x="-46" y="-156"/>
      <point x="-27" y="-188"/>
      <point x="21" y="-188" type="curve"/>
      <point x="4" y="-212"/>
      <point x="-22" y="-240"/>
      <point x="-52" y="-260" type="curve"/>
    </contour>
    <contour>
      <point x="56" y="0" type="move" name="_bottom"/>
    </contour>
    <contour>
      <point x="161" y="517" type="move" name="_top"/>
    </contour>
  </outline>
</glyph>
<glyph name="emdash" format="1">
  <advance width="913"/>
  <unicode hex="2014"/>
  <outline>
    <contour>
      <point x="46" y="200" type="line"/>
      <point x="842" y="200" type="line"/>
      <point x="875" y="356" type="line"/>
      <point x="79" y="356" type="line"/>
    </contour>
  </outline>
</glyph>
<glyph name="bullet" format="1">
  <advance width="414"/>
  <unicode hex="2022"/>
  <outline>
    <contour>
      <point x="198" y="148" type="curve" smooth="yes"/>
      <point x="288" y="148"/>
      <point x="366" y="228"/>
      <point x="366" y="316" type="curve" smooth="yes"/>
      <point x="366" y="390"/>
      <point x="312" y="447"/>
      <point x="235" y="447" type="curve" smooth="yes"/>
      <point x="144" y="447"/>
      <point x="66" y="369"/>
      <point x="66" y="279" type="curve" smooth="yes"/>
      <point x="66" y="205"/>
      <point x="120" y="148"/>
    </contour>
  </outline>
</glyph>
<glyph name="guilsinglright" format="1">
  <advance width="371"/>
  <unicode hex="203A"/>
  <outline>
    <contour>
      <point x="135" y="48" type="line"/>
      <point x="343" y="256" type="line"/>
      <point x="216" y="462" type="line"/>
      <point x="72" y="432" type="line"/>
      <point x="173" y="256" type="line"/>
      <point x="-5" y="79" type="line"/>
    </contour>
  </outline>
</glyph>
<glyph name="ae_upper" format="1">
  <advance width="593"/>
  <outline>
    <contour>
      <point x="-43" y="0" type="line"/>
      <point x="185" y="0" type="line"/>
      <point x="725" y="687" type="line"/>
      <point x="497" y="687" type="line"/>
    </contour>
    <contour>
      <point x="212" y="92" type="line"/>
      <point x="531" y="92" type="line"/>
      <point x="560" y="235" type="line"/>
      <point x="241" y="235" type="line"/>
    </contour>
    <contour>
      <point x="552" y="687" type="move" name="_ae_upper"/>
    </contour>
  </outline>
</glyph>
<glyph name="capital_V" format="1">
  <advance width="631"/>
  <outline>
    <contour>
      <point x="149" y="0" type="line"/>
      <point x="371" y="0" type="line"/>
      <point x="778" y="687" type="line"/>
      <point x="555" y="687" type="line"/>
    </contour>
    <contour>
      <point x="152" y="0" type="line"/>
      <point x="368" y="0" type="line"/>
      <point x="246" y="687" type="line"/>
      <point x="31" y="687" type="line"/>
    </contour>
  </outline>
</glyph>
<glyph name="descender" format="1">
  <advance width="310"/>
  <outline>
    <contour>
      <point x="-31" y="-172" type="line"/>
      <point x="162" y="-172" type="line"/>
      <point x="305" y="517" type="line"/>
      <point x="112" y="517" type="line"/>
    </contour>
    <contour>
      <point x="62" y="275" type="move" name="loop_left"/>
    </contour>
    <contour>
      <point x="249" y="247" type="move" name="loop_right"/>
    </contour>
  </outline>
</glyph>
<glyph name="lowercase_loop" format="1">
  <advance width="589"/>
  <outline>
    <contour>
      <point x="248" y="-12" type="curve" smooth="yes"/>
      <point x="414" y="-12"/>
      <point x="534" y="147"/>
      <point x="534" y="318" type="curve" smooth="yes"/>
      <point x="534" y="444"/>
      <point x="458" y="529"/>
      <point x="336" y="529" type="curve" smooth="yes"/>
      <point x="173" y="529"/>
      <point x="54" y="368"/>
      <point x="54" y="199" type="curve" smooth="yes"/>
      <point x="54" y="73"/>
      <point x="128" y="-12"/>
    </contour>
    <contour>
      <point x="196" y="148" type="curve" smooth="yes"/>
      <point x="149" y="148"/>
      <point x="121" y="175"/>
      <point x="121" y="219" type="curve" smooth="yes"/>
      <point x="121" y="292"/>
      <point x="187" y="369"/>
      <point x="267" y="369" type="curve" smooth="yes"/>
      <point x="319" y="369"/>
      <point x="350" y="341"/>
      <point x="350" y="296" type="curve" smooth="yes"/>
      <point x="350" y="221"/>
      <point x="279" y="148"/>
    </contour>
    <contour>
      <point x="124" y="247" type="move" name="_loop_right"/>
    </contour>
  </outline>
</glyph>
<glyph name="lowercase_loop_reverse" format="1">
  <advance width="531"/>
  <outline>
    <contour>
      <point x="224" y="-12" type="curve" smooth="yes"/>
      <point x="388" y="-12"/>
      <point x="506" y="148"/>
      <point x="506" y="319" type="curve" smooth="yes"/>
      <point x="506" y="444"/>
      <point x="431" y="529"/>
      <point x="312" y="529" type="curve" smooth="yes"/>
      <point x="146" y="529"/>
      <point x="26" y="369"/>
      <point x="26" y="200" type="curve" smooth="yes"/>
      <point x="26" y="74"/>
      <point x="102" y="-12"/>
    </contour>
    <contour>
      <point x="294" y="148" type="curve" smooth="yes"/>
      <point x="241" y="148"/>
      <point x="210" y="176"/>
      <point x="210" y="221" type="curve" smooth="yes"/>
      <point x="210" y="298"/>
      <point x="281" y="369"/>
      <point x="365" y="369" type="curve" smooth="yes"/>
      <point x="411" y="369"/>
      <point x="439" y="342"/>
      <point x="439" y="298" type="curve" smooth="yes"/>
      <point x="439" y="226"/>
      <point x="374" y="148"/>
    </contour>
    <contour>
      <point x="437" y="275" type="move" name="_loop_left"/>
    </contour>
  </outline>
</glyph>
